# xmcd
#
# Track frame offsets: 
#        182
#        14850
#        30432
#        52532
#        72542
#        91065
#        111427
#        133252
#        150822
#        165720
#
# Disc length: 2447 seconds
#
# Revision: 2
# Processed by: cddbd v1.5PL3 Copyright (c) Steve Scherf et al.
# Submitted via: ExactAudioCopy v0.95a3
#
DISCID=79098d0a
DTITLE=Michael Martin Murphey - River Of Time
DYEAR=1988
DGENRE=Country
TTITLE0=From The Word Go
TTITLE1=Talkin' To The Wrong Man
TTITLE2=River Of Time
TTITLE3=Vanishing Breed
TTITLE4=Pilgrims On The Way (Matthew's Song)
TTITLE5=The Running Blood
TTITLE6=Children Of The Wild World
TTITLE7=I'm Gonna Miss You, Girl
TTITLE8=What Am I Doin' Hangin' 'Round?
TTITLE9=Still Got The Fire
EXTD=
EXTT0=
EXTT1=
EXTT2=
EXTT3=
EXTT4=
EXTT5=
EXTT6=
EXTT7=
EXTT8=
EXTT9=
PLAYORDER=
